<svg xmlns="http://www.w3.org/2000/svg" width="1280" height="720" viewBox="0 0 1280 720">
  <defs>
    <linearGradient id="wall" x1="0" y1="0" x2="0" y2="1"><stop stop-color="#192b46"/><stop offset="1" stop-color="#0b1427"/></linearGradient>
    <linearGradient id="floor" x1="0" y1="0" x2="0" y2="1"><stop stop-color="#354663"/><stop offset="1" stop-color="#18233a"/></linearGradient>
    <radialGradient id="window"><stop stop-color="#98ddff"/><stop offset=".36" stop-color="#457fc8"/><stop offset="1" stop-color="#13294d"/></radialGradient>
    <linearGradient id="warm" x1="0" y1="0" x2="0" y2="1"><stop stop-color="#ffd77c"/><stop offset="1" stop-color="#c66c3d"/></linearGradient>
    <filter id="glow"><feGaussianBlur stdDeviation="8"/></filter>
  </defs>
  <rect width="1280" height="720" fill="#07101f"/>
  <path d="M65 575V145Q65 74 136 74H1144Q1215 74 1215 145V575" fill="url(#wall)" stroke="#59718f" stroke-width="10"/>
  <path d="M105 420H1175V630H105z" fill="url(#floor)" stroke="#5d7391" stroke-width="7"/>
  <path d="M100 550H1180" stroke="#8aa0b8" stroke-opacity=".25" stroke-width="3"/>
  <path d="M170 455L235 620M1110 455L1045 620" stroke="#8aa0b8" stroke-opacity=".28" stroke-width="3"/>
  <g transform="translate(875 125)">
    <rect x="-14" y="-14" width="284" height="254" rx="78" fill="#0a1527" stroke="#7590ad" stroke-width="14"/>
    <ellipse cx="128" cy="113" rx="113" ry="97" fill="url(#window)"/>
    <path d="M55 95q40-57 110-49" fill="none" stroke="#d9f5ff" stroke-opacity=".55" stroke-width="11" stroke-linecap="round"/>
    <circle cx="205" cy="157" r="5" fill="#fff"/><circle cx="43" cy="160" r="3" fill="#fff"/><circle cx="173" cy="67" r="4" fill="#fff"/>
    <path d="M25 211q100-51 205-5" fill="none" stroke="#dcecff" stroke-opacity=".24" stroke-width="7"/>
  </g>
  <g transform="translate(150 214)">
    <path d="M0 232V20q0-22 23-22h157q23 0 23 22v212" fill="#253c59" stroke="#7791ad" stroke-width="8"/>
    <rect x="26" y="32" width="151" height="88" rx="10" fill="#102338" stroke="#7dc7dd" stroke-width="5"/>
    <path d="M48 87h70l16-26 22 36" fill="none" stroke="#ffcc70" stroke-width="6" stroke-linecap="round"/>
    <circle cx="154" cy="153" r="13" fill="#ffb457"/><circle cx="112" cy="153" r="13" fill="#6bd5c6"/>
    <path d="M24 192h155" stroke="#0b1627" stroke-width="13"/>
  </g>
  <g transform="translate(840 478)">
    <path d="M0 112V18q0-21 21-21h178q21 0 21 21v94" fill="#324c64" stroke="#91a9b9" stroke-width="7"/>
    <path d="M17 17h186v76H17z" fill="#162b3c"/>
    <path d="M40 42q20-18 40 0t40 0t40 0" fill="none" stroke="#7fe1d2" stroke-width="8" stroke-linecap="round"/>
    <path d="M30 92h160" stroke="#0d1827" stroke-width="8"/>
    <path d="M29 112l-20 35m182-35 20 35" stroke="#91a9b9" stroke-width="8" stroke-linecap="round"/>
  </g>
  <g transform="translate(526 421)">
    <ellipse cx="118" cy="145" rx="159" ry="58" fill="#080e19" opacity=".52"/>
    <path d="M-15 124Q-6 25 56 0h125q62 25 72 124" fill="#526e89" stroke="#9cb6c9" stroke-width="8"/>
    <ellipse cx="119" cy="96" rx="102" ry="55" fill="#1d3048" stroke="#82a3bd" stroke-width="6"/>
    <ellipse cx="119" cy="89" rx="55" ry="29" fill="url(#warm)" opacity=".72"/>
    <ellipse cx="119" cy="89" rx="79" ry="43" fill="#ffcb76" opacity=".18" filter="url(#glow)"/>
    <path d="M0 126h240" stroke="#273e58" stroke-width="16"/>
  </g>
  <g transform="translate(106 500)">
    <path d="M0 118V14q0-18 18-18h93q18 0 18 18v104" fill="#354c60" stroke="#90a4b4" stroke-width="7"/>
    <path d="M16 18h97v62H16z" fill="#102735"/><path d="M30 39h65M30 55h43" stroke="#80c9c5" stroke-width="6" stroke-linecap="round"/>
  </g>
  <g transform="translate(1110 466)">
    <path d="M0 142V26q0-26 26-26h61q26 0 26 26v116" fill="#203447" stroke="#7797ac" stroke-width="7"/>
    <path d="M21 107q28-22 54 0" fill="none" stroke="#7197aa" stroke-width="9"/>
    <path d="M55 0v-55" stroke="#6f91a8" stroke-width="8"/><path d="M35-54q20-27 39 0" fill="none" stroke="#74d7c1" stroke-width="8"/>
  </g>
  <g fill="#ffd984"><circle cx="222" cy="118" r="13"/><circle cx="510" cy="114" r="13"/><circle cx="780" cy="114" r="13"/></g>
  <g opacity=".34" fill="#e3f4ff"><circle cx="356" cy="197" r="2"/><circle cx="742" cy="271" r="3"/><circle cx="650" cy="168" r="2"/><circle cx="1030" cy="415" r="2"/></g>
</svg>
